<?xml version="1.0" ?><svg viewBox="0 0 64 64" xmlns="http://www.w3.org/2000/svg"><defs><style>.cls-1{fill:#d2ddff;}.cls-2{fill:#bf7e68;}.cls-2,.cls-3,.cls-5,.cls-6,.cls-7{stroke:#4c241d;stroke-linecap:round;stroke-linejoin:round;stroke-width:2px;}.cls-3{fill:none;}.cls-4{fill:#4c241d;}.cls-5{fill:#ffe8dc;}.cls-6{fill:#fff;}.cls-7{fill:#a9ba5a;}</style></defs><g id="positive-deal"><circle class="cls-1" cx="29" cy="33" r="23"/><path class="cls-2" d="M36.79,56.44l1.13.68a2.75,2.75,0,0,0,3.6-.6,2.65,2.65,0,0,0-.74-3.85h0l1.37.82a2.74,2.74,0,0,0,3.6-.6A2.64,2.64,0,0,0,45,49l1.38.82a2.74,2.74,0,0,0,3.6-.6,2.64,2.64,0,0,0-.76-3.85l-.44-.27L50,44l-4.33-6.55L33.34,27.76l-1.55-1.32A9.63,9.63,0,0,0,21.61,25h0a9.28,9.28,0,0,1-4.93.73l-4.48-.56L8,23,3,35l3.91,3.33L14,47.14l15.84,11L32.56,60l1.26.81a2.65,2.65,0,0,0,3.63-.9h0a2.65,2.65,0,0,0-.91-3.63L35,55.39"/><circle class="cls-3" cx="55.5" cy="56.5" r="2.5"/><path class="cls-4" d="M58.07,17A1.07,1.07,0,1,1,57,16,1.07,1.07,0,0,1,58.07,17Z"/><path class="cls-5" d="M54.19,22.12,62.12,38l-12,7.41L36,38c-1.72-.52-3.22-1.88-3.55-4.91l-7.26.66a3.07,3.07,0,0,1-3.2-2.1h0a3.07,3.07,0,0,1,2-3.91l10.54-3.33a6.71,6.71,0,0,1,5.95.95l.38.27a6.25,6.25,0,0,0,6.4.5h0Z"/><path class="cls-6" d="M42.15,37.45a11.7,11.7,0,0,1-5.23.7L36,38"/><path class="cls-5" d="M12.8,49.42h0a2.65,2.65,0,0,1,0-3.74l1.25-1.25a2.65,2.65,0,0,1,3.74,0h0a2.65,2.65,0,0,1,0,3.74l-1.25,1.25A2.65,2.65,0,0,1,12.8,49.42Z"/><path class="cls-5" d="M16.54,53.15h0a2.64,2.64,0,0,1,0-3.73L19,46.93a2.63,2.63,0,0,1,3.74,0h0a2.64,2.64,0,0,1,0,3.73l-2.49,2.49A2.63,2.63,0,0,1,16.54,53.15Z"/><path class="cls-5" d="M20.28,56.89h0a2.65,2.65,0,0,1,0-3.74L24,49.42a2.65,2.65,0,0,1,3.74,0h0a2.64,2.64,0,0,1,0,3.73L24,56.89A2.64,2.64,0,0,1,20.28,56.89Z"/><path class="cls-5" d="M24,60.63h0a2.65,2.65,0,0,1,0-3.74l5-5a2.64,2.64,0,0,1,3.73,0h0a2.63,2.63,0,0,1,0,3.74l-5,5A2.65,2.65,0,0,1,24,60.63Z"/><path class="cls-2" d="M34,55l4,2.2a2.65,2.65,0,0,0,3.63-.91h0a2.65,2.65,0,0,0-.91-3.63l-3-1.81"/><path class="cls-2" d="M40.46,46.32l6,3.62A2.64,2.64,0,0,0,50.13,49h0a2.63,2.63,0,0,0-.91-3.62l-6-3.62"/><circle class="cls-7" cx="32" cy="11" r="6"/><polyline class="cls-7" points="30 12 31.5 13 34 9"/></g></svg>